<svg xmlns="http://www.w3.org/2000/svg" viewBox="0 0 500 150">
  <path fill="#2D6A4F" d="M250,10c-71.8,0-130,30.2-130,67.5c0,37.3,58.2,67.5,130,67.5s130-30.2,130-67.5C380,40.2,321.8,10,250,10z M250,125c-57.4,0-104-21.2-104-47.5S192.6,30,250,30s104,21.2,104,47.5S307.4,125,250,125z"/>
  <path fill="#2D6A4F" d="M87.5,40h15v70h-15V40z"/>
  <path fill="#2D6A4F" d="M120,40h15v10c5-7.5,12.5-12.5,22.5-12.5c17.5,0,27.5,11.2,27.5,30V110h-15V70c0-12.5-5.8-20-17.5-20c-10.8,0-17.5,7.5-17.5,20v40h-15V40z"/>
  <path fill="#2D6A4F" d="M200,40h15v10c5-7.5,12.5-12.5,22.5-12.5c17.5,0,27.5,11.2,27.5,30V110h-15V70c0-12.5-5.8-20-17.5-20c-10.8,0-17.5,7.5-17.5,20v40h-15V40z"/>
  <path fill="#2D6A4F" d="M280,40h15v10c5-7.5,12.5-12.5,22.5-12.5c17.5,0,27.5,11.2,27.5,30V110h-15V70c0-12.5-5.8-20-17.5-20c-10.8,0-17.5,7.5-17.5,20v40h-15V40z"/>
  <path fill="#2D6A4F" d="M360,40h15v70h-15V40z"/>
  <path fill="#2D6A4F" d="M390,40h15v10c5-7.5,12.5-12.5,22.5-12.5c17.5,0,27.5,11.2,27.5,30V110h-15V70c0-12.5-5.8-20-17.5-20c-10.8,0-17.5,7.5-17.5,20v40h-15V40z"/>
</svg>
