<svg xmlns="http://www.w3.org/2000/svg" viewBox="0 0 800 200">
  <path fill="#1A2B5F" d="M115.7,30c-41.8,0-75.7,33.9-75.7,75.7s33.9,75.7,75.7,75.7c41.8,0,75.7-33.9,75.7-75.7S157.5,30,115.7,30z M115.7,160.4c-30.2,0-54.7-24.5-54.7-54.7s24.5-54.7,54.7-54.7c30.2,0,54.7,24.5,54.7,54.7S145.9,160.4,115.7,160.4z"/>
  <path fill="#1A2B5F" d="M240.2,50.1h-40.9v100.6h21.9V124h19c27.3,0,43.8-13.9,43.8-36.9C284,64,267.5,50.1,240.2,50.1z M238.2,106.9h-17v-39.7h17c13.9,0,22.9,7.5,22.9,19.9C261.1,99.4,252.1,106.9,238.2,106.9z"/>
  <path fill="#1A2B5F" d="M338.8,48.1c-31.3,0-52.7,23.9-52.7,52.7c0,28.8,21.4,52.7,52.7,52.7c31.3,0,52.7-23.9,52.7-52.7C391.5,72,370.1,48.1,338.8,48.1z M338.8,134.9c-17.9,0-30.8-14.9-30.8-34.1c0-19.4,12.9-34.1,30.8-34.1c17.9,0,30.8,14.7,30.8,34.1C369.6,120,356.7,134.9,338.8,134.9z"/>
  <path fill="#1A2B5F" d="M456.9,48.1c-14.9,0-26.8,6-33.6,16.9V50.1h-20.9v100.6h21.9V99.9c0-17.9,9.5-30.8,25.9-30.8c14.9,0,23.4,8.5,23.4,23.4v58.2h21.9V88.5C495.5,63.5,480.8,48.1,456.9,48.1z"/>
  <path fill="#1A2B5F" d="M570.7,50.1h-21.9v15.9c-6.5-11.4-17.9-17.9-32.6-17.9c-28.3,0-48.7,23.9-48.7,52.7c0,28.8,20.4,52.7,48.7,52.7c14.7,0,26.1-6.5,32.6-17.9v15.9h21.9V50.1z M520.1,134.9c-17.9,0-30.8-14.9-30.8-34.1c0-19.4,12.9-34.1,30.8-34.1c17.9,0,30.8,14.7,30.8,34.1C550.9,120,538,134.9,520.1,134.9z"/>
  <path fill="#1A2B5F" d="M635.2,48.1c-14.9,0-26.8,6-33.6,16.9V50.1h-20.9v100.6h21.9V99.9c0-17.9,9.5-30.8,25.9-30.8c14.9,0,23.4,8.5,23.4,23.4v58.2h21.9V88.5C673.8,63.5,659.1,48.1,635.2,48.1z"/>
  <path fill="#1A2B5F" d="M736.1,48.1c-31.3,0-52.7,23.9-52.7,52.7c0,28.8,21.4,52.7,52.7,52.7c20.4,0,37.3-10.4,45.8-27.3l-18.9-8.5c-5,10.4-15.4,16.9-26.8,16.9c-14.9,0-26.8-10.4-29.8-25.9h80.4c0.5-2.5,0.5-5,0.5-7.5C787.8,72,767.4,48.1,736.1,48.1z M707.3,91.5c3-15.4,14.9-24.9,28.8-24.9c13.9,0,25.9,9.5,28.8,24.9H707.3z"/>
  <path fill="#1A2B5F" d="M770.9,150.9c0,5,4,9,9,9s9-4,9-9s-4-9-9-9S770.9,145.9,770.9,150.9z M786.8,150.9c0,3.8-3.1,6.9-6.9,6.9c-3.8,0-6.9-3.1-6.9-6.9c0-3.8,3.1-6.9,6.9-6.9C783.7,144,786.8,147.1,786.8,150.9z M782.8,155.4h2.1v-8.8c0-0.2-0.2-0.4-0.4-0.4h-4.6c-1.7,0-3.1,1.3-3.1,3.1c0,1.5,1,2.7,2.5,3.1l-2.5,2.9h2.3l2.3-2.7h1.5V155.4z M780.9,151.3h-1.5c-0.8,0-1.5-0.6-1.5-1.5c0-0.8,0.6-1.5,1.5-1.5h1.5V151.3z"/>
</svg>
