<svg xmlns="http://www.w3.org/2000/svg" viewBox="0 0 500 150">
  <path fill="#1976D2" d="M80,30c-27.6,0-50,22.4-50,50s22.4,50,50,50s50-22.4,50-50S107.6,30,80,30z M80,110c-16.6,0-30-13.4-30-30s13.4-30,30-30s30,13.4,30,30S96.6,110,80,110z"/>
  <rect fill="#1976D2" x="80" y="40" width="10" height="80"/>
  <rect fill="#1976D2" x="100" y="40" width="10" height="80"/>
  <rect fill="#1976D2" x="60" y="40" width="10" height="10"/>
  <rect fill="#1976D2" x="60" y="60" width="10" height="10"/>
  <rect fill="#1976D2" x="60" y="80" width="10" height="10"/>
  <rect fill="#1976D2" x="60" y="100" width="10" height="10"/>
  <path fill="#1976D2" d="M150,40h30c22.1,0,40,17.9,40,40s-17.9,40-40,40h-30V40z M180,100c11,0,20-9,20-20s-9-20-20-20h-10v40H180z"/>
  <path fill="#1976D2" d="M240,40h60v20h-40v10h30v20h-30v10h40v20h-60V40z"/>
</svg>
